<?xml version="1.0" encoding="UTF-8"?>
<svg width="48px" height="48px" viewBox="0 0 48 48" version="1.1" xmlns="http://www.w3.org/2000/svg" xmlns:xlink="http://www.w3.org/1999/xlink">
    <title>4</title>
    <g id="页面-1" stroke="none" stroke-width="1" fill="none" fill-rule="evenodd">
        <g id="shibkingpro" transform="translate(-1461.000000, -140.000000)" fill="#FFFFFF">
            <g id="5" transform="translate(1390.000000, 120.000000)">
                <path d="M95,20 C108.254834,20 119,30.745166 119,44 C119,57.254834 108.254834,68 95,68 C81.745166,68 71,57.254834 71,44 C71,30.745166 81.745166,20 95,20 Z M95.0769197,30.0000063 C93.7711309,30.0048827 92.5372514,30.599013 91.7187635,31.6170119 C90.0676701,30.7210123 88.4935344,31.0290122 87.5210683,32.2470116 C86.887534,33.0154825 86.6308784,34.0272601 86.8214525,35.0050103 C87.0733142,36.4120096 87.8638801,37.0490093 88.4725459,37.749009 C85.9749173,39.3310082 81.245514,43.2090064 81.0076446,49.1870036 C80.9096983,52.2250021 81.7562336,54.1150012 83.3583539,55.7250004 C84.6932084,57.1290707 86.5295002,57.9470463 88.4655498,58.0000063 L88.4655498,58.0000063 L101.863194,58.0000063 C103.751309,57.9409068 105.5353,57.120376 106.809478,55.7250004 C108.432587,54.1150012 109.111214,52.2040021 108.985283,49.1800036 C108.740418,43.3000063 104.192915,39.3660082 101.681294,37.749009 C102.604786,36.6990095 103.276418,36.0900098 103.437329,35.0050103 C103.622531,34.0317907 103.366229,33.0265365 102.737713,32.2610116 C101.696483,30.9876421 99.8597046,30.7121257 98.4910452,31.6240119 C97.6564764,30.5946353 96.4016667,29.9977591 95.0769197,30.0000063 Z M97.8404024,40.5770076 C98.1746273,40.2425994 98.7165129,40.2425994 99.0507379,40.5770076 C99.3849628,40.9114159 99.3849628,41.4535988 99.0507379,41.7880071 L99.0507379,41.7880071 L96.3921975,44.4480058 L99.6663998,44.4480058 C100.137792,44.4480058 100.519931,44.8303545 100.519931,45.3020054 C100.519931,45.7736563 100.137792,46.156005 99.6663998,46.156005 L99.6663998,46.156005 L96.2033013,46.156005 L96.2033013,48.3330039 L99.6663998,48.3330039 C100.137792,48.3330039 100.519931,48.7153526 100.519931,49.1870035 C100.519931,49.6586545 100.137792,50.0410032 99.6663998,50.0410032 L99.6663998,50.0410032 L96.2033013,50.0410032 L96.2033013,53.3100016 C96.2033013,53.7816525 95.8211623,54.1640012 95.3497699,54.1640012 C94.8783776,54.1640012 94.4962386,53.7816525 94.4962386,53.3100016 L94.4962386,53.3100016 L94.4962386,50.0410032 L91.0681208,50.0410032 C90.5967284,50.0410032 90.2145894,49.6586545 90.2145894,49.1870035 C90.2145894,48.7153526 90.5967284,48.3330039 91.0681208,48.3330039 L91.0681208,48.3330039 L94.4962386,48.3330039 L94.4962386,46.156005 L91.0681208,46.156005 C90.5967285,46.156005 90.2145894,45.7736563 90.2145894,45.3020054 C90.2145894,44.8303545 90.5967285,44.4480058 91.0681208,44.4480058 L91.0681208,44.4480058 L94.1744152,44.4480058 L91.5158749,41.7880071 C91.18165,41.4535988 91.18165,40.9114159 91.5158749,40.5770076 C91.8500999,40.2425994 92.3919855,40.2425994 92.7262104,40.5770076 L92.7262104,40.5770076 L95.2798083,43.1390064 Z" id="4"></path>
            </g>
        </g>
    </g>
</svg>