<?xml version="1.0" encoding="UTF-8"?>
<svg width="48px" height="48px" viewBox="0 0 48 48" version="1.1" xmlns="http://www.w3.org/2000/svg" xmlns:xlink="http://www.w3.org/1999/xlink">
    <title>1</title>
    <defs>
        <path d="M95,20 C108.254834,20 119,30.745166 119,44 C119,57.254834 108.254834,68 95,68 C81.745166,68 71,57.254834 71,44 C71,30.745166 81.745166,20 95,20 Z M95,30 C87.2680135,30 81,36.2680135 81,44 C81,51.7319865 87.2680135,58 95,58 C102.731986,58 109,51.7319865 109,44 C109,36.2680135 102.731986,30 95,30 Z M104.722222,43.9999986 C104.722222,49.369653 100.369658,53.7222168 95,53.7222168 C92.0288579,53.7244438 89.2265467,52.3665742 87.3871598,50.0480102 L87.3871598,50.0480102 L87.1938034,49.7959347 L86.025641,50.7307631 L86.025641,46.9914495 L89.7649573,47.7393122 L88.3627137,48.8611063 L88.5328971,49.0849727 C90.0399863,50.9990089 92.3764403,52.2264886 95,52.2264886 C99.4591346,52.2264886 103.089785,48.6784173 103.222724,44.2514996 L103.222724,44.2514996 L103.226496,43.9999986 Z M96.5277778,39.1111111 L98.0833333,39.8312757 L96.8497778,41.6316872 L98.8611111,41.6316872 L98.8611111,43.0720165 L95.75,43.0720165 L95.75,44.5123457 L98.8611111,44.5123457 L98.8611111,45.9526749 L95.75,45.9526749 L95.75,48.8333333 L94.1944444,48.8333333 L94.1944444,45.9526749 L91.0833333,45.9526749 L91.0833333,44.5123457 L94.1944444,44.5123457 L94.1944444,43.0720165 L91.0833333,43.0720165 L91.0833333,41.6316872 L93.0946667,41.6316872 L91.8611111,39.8312757 L93.4166667,39.1111111 L94.9722222,41.3335391 L96.5277778,39.1111111 Z M95,34.2777805 C97.9711421,34.2755535 100.773453,35.6334231 102.61284,37.951987 L102.61284,37.951987 L102.806197,38.2040625 L103.974359,37.2692341 L103.974359,41.0085477 L100.235043,40.260685 L101.637286,39.1388909 L101.4671,38.9150245 C99.9599604,37.0009884 97.6228395,35.7735087 95,35.7735087 C90.5408654,35.7735087 86.910215,39.32158 86.7772757,43.7484977 L86.7772757,43.7484977 L86.7735043,43.9999986 L85.2777778,43.9999986 L85.2816423,43.723182 C85.4281685,38.4815498 89.7229222,34.2777805 95,34.2777805 Z" id="path-1"></path>
    </defs>
    <g id="页面-1" stroke="none" stroke-width="1" fill="none" fill-rule="evenodd">
        <g id="shibkingpro" transform="translate(-831.000000, -140.000000)">
            <g id="2" transform="translate(760.000000, 120.000000)">
                <mask id="mask-2" fill="white">
                    <use xlink:href="#path-1"></use>
                </mask>
                <use id="1" fill="#FFFFFF" xlink:href="#path-1"></use>
            </g>
        </g>
    </g>
</svg>