<?xml version="1.0" encoding="UTF-8"?>
<svg width="48px" height="48px" viewBox="0 0 48 48" version="1.1" xmlns="http://www.w3.org/2000/svg" xmlns:xlink="http://www.w3.org/1999/xlink">
    <title>3</title>
    <g id="页面-1" stroke="none" stroke-width="1" fill="none" fill-rule="evenodd">
        <g id="shibkingpro" transform="translate(-1251.000000, -140.000000)" fill="#FFFFFF">
            <g id="4" transform="translate(1180.000000, 120.000000)">
                <path d="M95,20 C108.254834,20 119,30.745166 119,44 C119,57.254834 108.254834,68 95,68 C81.745166,68 71,57.254834 71,44 C71,30.745166 81.745166,20 95,20 Z M102.946242,30.9999997 L87.0672436,30.9999997 C86.3425737,30.9999997 85.6783627,31.4267085 85.3453588,32.1064931 L81.2162554,40.5416446 C80.8397411,41.3107691 80.9628248,42.2469959 81.5234999,42.8786777 L93.4808557,56.352691 C93.8464587,56.7645725 94.3568288,56.9987835 94.8913784,56.9999997 C95.4259281,57.0011882 95.9372381,56.7692752 96.3044987,56.3590421 L108.47063,42.7635627 C109.038288,42.1296568 109.162446,41.1850977 108.779754,40.4118425 L104.664369,32.0983557 C104.329858,31.4230229 103.667869,30.9999997 102.946242,30.9999997 Z M88.9334487,40.4936138 L94.9441665,46.9970164 L100.90114,40.4969879 C101.316629,40.0751217 101.973689,40.0761233 102.388023,40.4992545 C102.802358,40.9223856 102.825407,41.6159321 102.440181,42.0687047 L96.4099202,48.6479244 C96.027536,49.0679314 95.4994214,49.3049231 94.9477369,49.3041068 L94.9441665,49.3041068 C94.3939482,49.3061452 93.8666449,49.0715366 93.4836745,48.6542756 L87.4000448,42.0720788 C87.0091531,41.621412 87.0278398,40.9243149 87.4422478,40.497729 C87.8566557,40.0711432 88.5169358,40.0693211 88.9334487,40.4936138 Z" id="3"></path>
            </g>
        </g>
    </g>
</svg>