<?xml version="1.0" encoding="UTF-8"?>
<svg width="42px" height="42px" viewBox="0 0 42 42" version="1.1" xmlns="http://www.w3.org/2000/svg" xmlns:xlink="http://www.w3.org/1999/xlink">
    <title>money</title>
    <g id="页面-1" stroke="none" stroke-width="1" fill="none" fill-rule="evenodd">
        <g id="画板" transform="translate(-1030.000000, -150.000000)" fill="#FFC22F" fill-rule="nonzero">
            <g id="编组-2" transform="translate(825.000000, 139.000000)">
                <g id="money" transform="translate(205.000000, 11.000000)">
                    <path d="M16.1538461,0 C7.22712358,0 0,3.36804431 0,7.53846156 C0,11.7088788 7.22712358,15.0769231 16.1538461,15.0769231 C25.0805687,15.0769231 32.3076923,11.7088788 32.3076923,7.53846156 C32.3076923,3.37284898 25.0805687,0 16.1538461,0 Z" id="路径"></path>
                    <path d="M20.5280068,17.6211539 C18.9701657,17.8887019 17.3285168,18.0199519 15.6030599,18.0199519 C8.16880576,18.0199519 1.9670208,15.3899038 0.389460256,11.8461538 C0.128176815,12.4216346 0,12.9971154 0,13.6180288 C0,17.9997596 6.98070548,21.5384615 15.6030599,21.5384615 C16.0122397,21.5384615 16.4263493,21.5182692 16.8355291,21.4930288 C17.8067148,19.9887019 19.0589035,18.686298 20.5280068,17.6211539 L20.5280068,17.6211539 Z M30.7969401,15.4555289 C31.077943,14.8800481 31.2307692,14.2591346 31.2307692,13.6432692 C31.2307692,13.0475961 31.077943,12.446875 30.841309,11.8713942 C30.279303,13.1334134 29.1109222,14.2591346 27.558011,15.2132211 C27.7749256,15.1930288 27.9918402,15.1677884 28.2284743,15.1677884 C29.0665533,15.1879807 29.9539312,15.2788461 30.7969401,15.4555289 L30.7969401,15.4555289 Z" id="形状"></path>
                    <path d="M15.8287688,22.3276442 C8.28697308,22.3276442 1.99547509,19.6925481 0.395094063,16.1538462 C0.13003098,16.7293269 0,17.3048077 0,17.9257212 C0,22.176202 6.68659206,25.6492789 15.1035961,25.8461538 C15.2986425,24.609375 15.6537271,23.4331731 16.1538462,22.3276442 L15.8287688,22.3276442 Z" id="路径"></path>
                    <path d="M14.7701396,28.7689904 C7.71906791,28.5721154 1.90502635,26.0026442 0.39090151,22.6153846 C0.128651152,23.1908654 0,23.7663461 0,24.3872596 C0,28.6579327 6.70470324,32.15625 15.0769231,32.3076923 C14.8592058,31.3334135 14.7503471,30.3389423 14.7503471,29.3192307 C14.7503471,29.1223558 14.7701396,28.9456731 14.7701396,28.7689904 L14.7701396,28.7689904 Z" id="路径"></path>
                    <path d="M0.38770457,28 C0.127598994,28.5754808 0,29.1509615 0,29.771875 C0,34.1536058 6.94923647,37.6923077 15.5327213,37.6923077 C16.1118244,37.6923077 16.6712968,37.6721154 17.2307692,37.646875 C16.4798984,36.5867788 15.876257,35.4358173 15.4443836,34.1737981 C8.08781192,34.1283654 1.95815347,31.4983173 0.38770457,28 L0.38770457,28 Z" id="路径"></path>
                    <path d="M18.8676156,38.4099821 C17.8612099,38.5186209 16.8348754,38.563064 15.7686833,38.563064 C8.255516,38.5581259 1.98790033,35.985362 0.393594299,32.5187972 C0.129537386,33.0817436 0,33.64469 0,34.2520796 C0,38.5383733 7.05480427,42 15.7686833,42 C18.344484,42 20.7459075,41.6987743 22.8882562,41.1555804 C21.3836299,40.4839952 20.0284697,39.5556274 18.8676156,38.4099821 L18.8676156,38.4099821 Z M29.1807829,16.1538462 C22.1060498,16.1538462 16.3615658,21.8475059 16.3615658,28.8596455 C16.3615658,35.871785 22.1060498,41.5654449 29.1807829,41.5654449 C36.255516,41.5654449 42,35.8717851 42,28.8596455 C42,21.8475059 36.255516,16.1538462 29.1807829,16.1538462 Z M34.5217082,30.8546486 C35.2939502,30.8546486 35.916726,31.4719144 35.916726,32.237324 C35.9167259,33.0027336 35.2939502,33.6199994 34.5217082,33.6199994 L30.5758007,33.6199994 L30.5758007,35.8964757 C30.5758007,36.6618853 29.9530249,37.2791511 29.1807829,37.2791511 C28.4085409,37.2791511 27.7857651,36.6618853 27.7857651,35.8964757 L27.7857651,33.6199994 L23.8398577,33.6199994 C23.0676157,33.6199994 22.4448399,33.0027336 22.4448399,32.237324 C22.4448399,31.4719144 23.0676157,30.8546486 23.8398577,30.8546486 L27.7857651,30.8546486 L27.7857651,29.1213662 L27.7409252,29.0670468 L23.6604982,29.0670468 C22.8882562,29.0670468 22.2654804,28.449781 22.2654804,27.6843714 C22.2654804,26.9189618 22.8882562,26.301696 23.6604982,26.301696 L25.5387901,26.301696 L23.5857651,23.842509 C23.1074733,23.2449958 23.2120997,22.3709473 23.8149466,21.8968872 C24.4227758,21.4228271 25.2996442,21.5265278 25.7779359,22.1240411 L29.0960854,26.2967579 L29.3103203,26.2967579 L32.7829182,22.1042886 C33.2711744,21.5117134 34.1530249,21.4277652 34.7459075,21.9117016 C35.3437722,22.395638 35.4284698,23.2696864 34.9402135,23.8573234 L32.9224199,26.2918198 L34.6960854,26.2918198 C35.4683274,26.2918198 36.0911032,26.9090856 36.0911032,27.6744951 C36.0911032,28.4399047 35.4683274,29.0571706 34.6960854,29.0571706 L30.6256228,29.0571706 L30.5708185,29.1213662 L30.5708185,30.8447724 L34.5217082,30.8447724 L34.5217082,30.8546486 Z" id="形状"></path>
                </g>
            </g>
        </g>
    </g>
</svg>