<?xml version="1.0" encoding="UTF-8"?>
<svg width="48px" height="48px" viewBox="0 0 48 48" version="1.1" xmlns="http://www.w3.org/2000/svg" xmlns:xlink="http://www.w3.org/1999/xlink">
    <title>2</title>
    <defs>
        <path d="M95,20 C108.254834,20 119,30.745166 119,44 C119,57.254834 108.254834,68 95,68 C81.745166,68 71,57.254834 71,44 C71,30.745166 81.745166,20 95,20 Z M107.774921,30 L82.2249552,30 C81.5484579,30 81,30.5484676 81,31.2249768 L81,39.7543767 C81,40.4308859 81.5484579,40.9793535 82.2249552,40.9793535 L85.5199009,40.9793535 L85.5199009,56.7748997 C85.5199009,57.4515324 86.0682353,58 86.7449796,58 L103.254897,58 C103.931394,58 104.479976,57.4516559 104.479976,56.7748997 L104.479976,40.9793535 L107.774921,40.9793535 C108.451419,40.9793535 109,40.4310094 109,39.7543767 L109,31.2249768 C109,30.5484676 108.451295,30 107.774921,30 Z M98.1518428,41.4253091 C98.3375178,41.4253091 98.5155824,41.4990963 98.6468378,41.6304273 C98.9200512,41.9038785 98.9200512,42.3469835 98.6468378,42.6204348 L96.3606498,44.9064162 L98.1517193,44.9064162 C98.5382948,44.9064162 98.8517479,45.219803 98.8517479,45.6063853 C98.8517479,45.9929676 98.5382948,46.3063545 98.1517193,46.3063545 L95.7002037,46.3063545 L95.7002037,47.7178992 L98.1515959,47.7178992 C98.5381713,47.7178992 98.8515527,48.031286 98.8515527,48.4178683 C98.8515527,48.8044506 98.5381713,49.1178375 98.1515959,49.1178375 L95.7000802,49.1178375 L95.7000802,51.5696432 C95.7000802,51.9562937 95.3866436,52.2697358 95,52.2697358 C94.6133563,52.2697358 94.2999197,51.9562937 94.2999197,51.5696432 L94.2999197,49.1178375 L91.8480337,49.1178375 C91.4614583,49.1178375 91.1480476,48.8044506 91.1480476,48.4178683 C91.1480476,48.031286 91.4614583,47.7178992 91.8480337,47.7178992 L94.2997963,47.7178992 L94.2997963,46.3063545 L91.8480337,46.3063545 C91.4614583,46.3063545 91.1480476,45.9929676 91.1480476,45.6063853 C91.1480476,45.219803 91.4614583,44.9064162 91.8480337,44.9064162 L93.6391032,44.9064162 L91.3531622,42.6204348 C91.2218334,42.4891771 91.1480476,42.3111094 91.1480476,42.125431 C91.1480476,41.9397527 91.2218334,41.761685 91.3531622,41.6304273 C91.4844176,41.4990963 91.6624821,41.4253091 91.8481572,41.4253091 C92.0338322,41.4253091 92.2118968,41.4990963 92.3431522,41.6304273 L95,44.287322 L97.6568478,41.6304273 C97.7881032,41.4990963 97.9661678,41.4253091 98.1518428,41.4253091 Z M107.599839,31.3999383 L107.599839,39.5794153 L104.479976,39.5794153 L104.479976,36.3646691 L104.891875,36.3646691 C105.37514,36.3646691 105.76679,35.9730123 105.76679,35.4897385 C105.76679,35.0064647 105.37514,34.614808 104.891875,34.614808 L85.1080018,34.614808 C84.6247365,34.614808 84.2330867,35.0064647 84.2330867,35.4897385 C84.2330867,35.9730123 84.6247365,36.3646691 85.1080018,36.3646691 L85.5199009,36.3646691 L85.5199009,39.5794153 L82.3999136,39.5794153 L82.3999136,31.3999383 L107.599839,31.3999383 Z" id="path-1"></path>
    </defs>
    <g id="页面-1" stroke="none" stroke-width="1" fill="none" fill-rule="evenodd">
        <g id="shibkingpro" transform="translate(-1041.000000, -140.000000)">
            <g id="2备份" transform="translate(970.000000, 120.000000)">
                <mask id="mask-2" fill="white">
                    <use xlink:href="#path-1"></use>
                </mask>
                <use id="2" fill="#FFFFFF" xlink:href="#path-1"></use>
            </g>
        </g>
    </g>
</svg>