<?xml version="1.0" encoding="UTF-8"?>
<svg width="44px" height="42px" viewBox="0 0 44 42" version="1.1" xmlns="http://www.w3.org/2000/svg" xmlns:xlink="http://www.w3.org/1999/xlink">
    <title>rank</title>
    <g id="页面-1" stroke="none" stroke-width="1" fill="none" fill-rule="evenodd">
        <g id="画板" transform="translate(-825.000000, -150.000000)" fill="#FFC22F" fill-rule="nonzero">
            <g id="编组-2" transform="translate(825.000000, 139.000000)">
                <g id="rank" transform="translate(0.000000, 11.000000)">
                    <path d="M39.7053898,4.33628319 L38.2348198,4.33628319 L38.2348198,2.84955752 C38.2348198,1.23893805 36.8867973,0 35.2936798,0 L8.82341995,0 C7.23030246,0 5.88227997,1.23893805 5.88227997,2.84955752 L5.88227997,4.33628319 L4.41170998,4.33628319 C1.96075999,4.33628319 0,6.31858407 0,8.67256637 L0,11.5221239 C0,13.8761062 1.96075999,15.8584071 4.41170998,15.8584071 L5.88227997,15.8584071 C5.88227997,24.159292 12.3772974,30.9734513 20.5879799,31.7168142 L20.5879799,36.1769912 L16.4213649,36.1769912 C15.8086274,36.1769912 15.3184374,36.5486726 15.0733424,37.1681416 L13.9704149,40.0176991 C13.7253199,40.7610619 14.0929624,41.6283186 14.8282474,41.8761062 C14.9507949,41.8761062 15.1958899,42 15.3184374,42 L28.6761148,42 C29.5339473,42 30.1466848,41.380531 30.1466848,40.5132743 C30.1466848,40.3893805 30.1466848,40.1415929 30.0241373,40.0176991 L28.9212098,37.1681416 C28.6761148,36.5486726 28.1859248,36.1769912 27.5731873,36.1769912 L23.4065724,36.1769912 L23.4065724,31.7168142 C31.6172548,30.9734513 38.1122723,24.159292 38.1122723,15.8584071 L39.5828423,15.8584071 C42.0337923,15.8584071 43.9945523,13.8761062 43.9945523,11.5221239 L43.9945523,8.67256637 C44.1170998,6.31858407 42.1563398,4.33628319 39.7053898,4.33628319 Z M4.41170998,13.1327434 C3.55387748,13.1327434 2.94113998,12.5132743 2.94113998,11.6460177 L2.94113998,8.67256637 C2.94113998,7.92920354 3.55387748,7.18584071 4.41170998,7.18584071 L5.88227997,7.18584071 L5.88227997,13.0088496 L4.41170998,13.0088496 L4.41170998,13.1327434 Z M27.6957348,13.0088496 L25.3673324,15.3628319 L25.8575224,18.7079646 C25.9800699,19.079646 25.7349749,19.4513274 25.4898799,19.5752212 L25.2447849,19.5752212 C25.1222374,19.5752212 24.9996899,19.5752212 24.8771424,19.4513274 L22.0585499,17.840708 L19.1174099,19.4513274 C19.1174099,19.8230088 18.7497674,20.0707965 18.3821249,19.9469027 C18.0144824,19.9469027 17.7693874,19.5752212 17.7693874,19.2035398 C17.7693874,18.9557522 17.8919349,18.8318584 18.1370299,18.7079646 L18.7497674,15.3628319 L16.4213649,13.0088496 C16.2988174,12.8849558 16.1762699,12.5132743 16.2988174,12.3893805 C16.4213649,12.1415929 16.5439124,12.0176991 16.7890074,11.8938053 L20.0977899,11.3982301 L21.5683599,8.30088496 C21.6909074,7.92920354 22.1810974,7.80530973 22.4261924,7.92920354 C22.5487399,8.05309735 22.6712874,8.05309735 22.7938349,8.30088496 L24.2644049,11.3982301 L27.5731873,11.8938053 C27.8182823,11.8938053 28.0633773,12.1415929 28.0633773,12.3893805 C27.9408298,12.5132743 27.9408298,12.7610619 27.6957348,13.0088496 L27.6957348,13.0088496 Z M41.1759598,11.6460177 C41.1759598,12.3893805 40.5632223,13.1327434 39.7053898,13.1327434 L38.2348198,13.1327434 L38.2348198,7.30973451 L39.7053898,7.30973451 C40.5632223,7.30973451 41.1759598,7.92920354 41.1759598,8.79646018 L41.1759598,11.6460177 L41.1759598,11.6460177 Z" id="形状"></path>
                </g>
            </g>
        </g>
    </g>
</svg>