<?xml version="1.0" encoding="UTF-8"?>
<svg width="16px" height="16px" viewBox="0 0 16 16" version="1.1" xmlns="http://www.w3.org/2000/svg" xmlns:xlink="http://www.w3.org/1999/xlink">
    <title>刷新</title>
    <defs>
        <filter id="filter-1">
            <feColorMatrix in="SourceGraphic" type="matrix" values="0 0 0 0 0.078431 0 0 0 0 0.109804 0 0 0 0 0.423529 0 0 0 1.000000 0"></feColorMatrix>
        </filter>
        <filter id="filter-2">
            <feColorMatrix in="SourceGraphic" type="matrix" values="0 0 0 0 1.000000 0 0 0 0 1.000000 0 0 0 0 1.000000 0 0 0 1.000000 0"></feColorMatrix>
        </filter>
    </defs>
    <g id="页面-1" stroke="none" stroke-width="1" fill="none" fill-rule="evenodd">
        <g id="shibkingpro" transform="translate(-301.000000, -250.000000)">
            <g id="编组-4" transform="translate(270.000000, 240.000000)" filter="url(#filter-1)">
                <g transform="translate(31.000000, 6.000000)" filter="url(#filter-2)" id="刷新">
                    <g transform="translate(0.000000, 4.000000)">
                        <path d="M16,6.28583666 L16,2.2861224 L14.6935155,3.59060064 C13.2118642,1.34919135 10.7020381,0.000366685212 8.01230373,2.53747135e-16 C3.5875389,2.53747135e-16 1.77896175e-15,3.58145843 1.77896175e-15,8 C1.77896175e-15,12.4185414 3.5875389,16 8.01230373,16 C11.2741405,16.0006487 14.210827,14.0270334 15.4380343,11.0094992 C15.530344,10.7826007 15.4944066,10.5237669 15.3437593,10.3304979 C15.1931121,10.1372289 14.950642,10.0388868 14.7076851,10.0725163 C14.4647282,10.1061458 14.2581955,10.2666376 14.1658858,10.4935361 C13.1485634,12.9937725 10.7151485,14.6289981 8.01230373,14.6286692 C4.34579205,14.6286692 1.37343968,11.6608812 1.37343968,8 C1.37343968,4.33911859 4.34579205,1.37133061 8.01230373,1.37133061 C10.3809149,1.37133061 12.5177581,2.62266978 13.6994885,4.58252977 L11.9941343,6.28583666 L16,6.28583666 Z" id="路径" fill="#000000" fill-rule="nonzero"></path>
                    </g>
                </g>
            </g>
        </g>
    </g>
</svg>