<?xml version="1.0" encoding="UTF-8"?>
<svg width="36px" height="36px" viewBox="0 0 36 36" version="1.1" xmlns="http://www.w3.org/2000/svg" xmlns:xlink="http://www.w3.org/1999/xlink">
    <title>钱包</title>
    <g id="页面-1" stroke="none" stroke-width="1" fill="none" fill-rule="evenodd">
        <g id="shibkingpro" transform="translate(-1523.000000, -12.000000)" fill="#FFD664">
            <g id="1" transform="translate(1523.000000, 12.000000)">
                <path d="M18,0 C27.9411255,0 36,8.0588745 36,18 C36,27.9411255 27.9411255,36 18,36 C8.0588745,36 0,27.9411255 0,18 C0,8.0588745 8.0588745,0 18,0 Z M26.3953744,12.1860132 L9.60462555,12.1860132 C9.01872247,12.1860132 8.52147577,12.3976239 8.11288546,12.8208453 C7.70429515,13.2440667 7.5,13.7591191 7.5,14.3660026 L7.5,14.3660026 L7.5,26.3200106 C7.5,26.6234523 7.55781938,26.9069308 7.67345815,27.170446 C7.78909692,27.4339612 7.94713656,27.6655352 8.14757709,27.8651679 C8.34801762,28.0648006 8.57929515,28.2205142 8.84140969,28.3323085 C9.10352423,28.4441028 9.38105727,28.5 9.67400881,28.5 L9.67400881,28.5 L26.4647577,28.5 C26.7577093,28.5 27.027533,28.4441028 27.2742291,28.3323085 C27.5209251,28.2205142 27.7367841,28.0648006 27.9218062,27.8651679 C28.1068282,27.6655352 28.2494493,27.4339612 28.3496696,27.170446 C28.4498899,26.9069308 28.5,26.6234523 28.5,26.3200106 L28.5,26.3200106 L28.5,21.9600317 L23.25,21.9600317 C22.7103524,21.9600317 22.2979075,21.8482374 22.0126652,21.6246487 C21.7274229,21.4010601 21.5231278,21.1535155 21.3997797,20.882015 C21.2455947,20.5626026 21.160793,20.1952784 21.1453744,19.7800423 C21.1453744,19.1731588 21.3496696,18.662099 21.7582599,18.2468629 C22.1668502,17.8316268 22.6640969,17.6240088 23.25,17.6240088 L23.25,17.6240088 L28.5,17.6240088 L28.5,14.3660026 C28.5,13.7591191 28.2957048,13.2440667 27.8871145,12.8208453 C27.4785242,12.3976239 26.9812775,12.1860132 26.3953744,12.1860132 L26.3953744,12.1860132 Z M23.25,18.7020255 C22.9570485,18.7020255 22.7103524,18.8058346 22.5099119,19.0134526 C22.3094714,19.2210706 22.2092511,19.4766005 22.2092511,19.7800423 C22.2092511,20.083484 22.3094714,20.3430066 22.5099119,20.5586099 C22.7103524,20.7742133 22.9570485,20.882015 23.25,20.882015 C23.5429515,20.882015 23.7896476,20.7742133 23.9900881,20.5586099 C24.1905286,20.3430066 24.2907489,20.083484 24.2907489,19.7800423 C24.2907489,19.4766005 24.1905286,19.2210706 23.9900881,19.0134526 C23.7896476,18.8058346 23.5429515,18.7020255 23.25,18.7020255 Z M22.0589207,7.50262931 C21.6349119,7.47867338 21.1530837,7.61841629 20.6134361,7.92185805 C20.2588106,8.11350547 19.7654185,8.38500598 19.1332599,8.73635959 C18.5011013,9.0877132 17.8612335,9.4390668 17.2136564,9.79042041 C16.4735683,10.2056565 15.6872247,10.6368632 14.8546256,11.0840405 L14.8546256,11.0840405 L25.3546256,11.0840405 L24.0132159,8.42493253 C23.7665198,8.1374614 23.4735683,7.90588743 23.1343612,7.73021062 C22.8414097,7.60244567 22.4829295,7.52658524 22.0589207,7.50262931 Z" id="钱包"></path>
            </g>
        </g>
    </g>
</svg>